<mxfile host="app.diagrams.net" modified="2023-12-29T05:01:27.032Z" agent="Mozilla/5.0 (Windows NT 10.0; Win64; x64) AppleWebKit/537.36 (KHTML, like Gecko) Chrome/120.0.0.0 Safari/537.36 Edg/120.0.0.0" etag="xC5oetBHhDVynZ0T535I" version="22.1.15" type="github">
  <diagram name="第 1 页" id="_9YtetrDvufWfbgxIxy6">
    <mxGraphModel dx="2622" dy="2257" grid="1" gridSize="10" guides="1" tooltips="1" connect="1" arrows="1" fold="1" page="0" pageScale="1" pageWidth="827" pageHeight="1169" math="0" shadow="0">
      <root>
        <mxCell id="0" />
        <mxCell id="1" parent="0" />
        <mxCell id="j9Trd8sfjwHy8gCJ8K8i-8" value="" style="rounded=0;whiteSpace=wrap;html=1;fillColor=none;fontFamily=宋体;fontStyle=1;strokeWidth=2;dashed=1;fontSize=16;strokeColor=#808080;" parent="1" vertex="1">
          <mxGeometry x="-1040" y="-180" width="100" height="340" as="geometry" />
        </mxCell>
        <mxCell id="j9Trd8sfjwHy8gCJ8K8i-20" value="" style="rounded=0;whiteSpace=wrap;html=1;fillColor=none;fontFamily=宋体;fontStyle=1;strokeWidth=2;dashed=1;fontSize=16;strokeColor=#808080;" parent="1" vertex="1">
          <mxGeometry x="-930" y="-180" width="320" height="400" as="geometry" />
        </mxCell>
        <mxCell id="j9Trd8sfjwHy8gCJ8K8i-21" value="" style="rounded=0;whiteSpace=wrap;html=1;fillColor=none;fontFamily=宋体;fontStyle=1;strokeWidth=2;dashed=1;fontSize=16;strokeColor=#808080;" parent="1" vertex="1">
          <mxGeometry x="-240" y="-180" width="200" height="400" as="geometry" />
        </mxCell>
        <mxCell id="j9Trd8sfjwHy8gCJ8K8i-88" value="" style="rounded=0;whiteSpace=wrap;html=1;fillColor=none;fontFamily=宋体;fontStyle=1;strokeWidth=2;dashed=1;fontSize=16;strokeColor=#808080;" parent="1" vertex="1">
          <mxGeometry x="-600" y="-180" width="350" height="400" as="geometry" />
        </mxCell>
        <mxCell id="j9Trd8sfjwHy8gCJ8K8i-6" value="" style="triangle;direction=south;fillColor=#f5f5f5;rounded=0;fontFamily=宋体;labelBackgroundColor=none;fontSize=16;strokeColor=#000000;strokeWidth=2;fontStyle=1;fontColor=#333333;" parent="1" vertex="1">
          <mxGeometry x="-1020" y="-130" width="50" height="40" as="geometry" />
        </mxCell>
        <mxCell id="j9Trd8sfjwHy8gCJ8K8i-40" style="edgeStyle=orthogonalEdgeStyle;rounded=0;orthogonalLoop=1;jettySize=auto;html=1;exitX=1;exitY=0.5;exitDx=0;exitDy=0;entryX=0;entryY=0.5;entryDx=0;entryDy=0;fontStyle=1" parent="1" source="j9Trd8sfjwHy8gCJ8K8i-10" target="j9Trd8sfjwHy8gCJ8K8i-12" edge="1">
          <mxGeometry relative="1" as="geometry" />
        </mxCell>
        <mxCell id="j9Trd8sfjwHy8gCJ8K8i-42" style="edgeStyle=orthogonalEdgeStyle;rounded=0;orthogonalLoop=1;jettySize=auto;html=1;exitX=1;exitY=0.75;exitDx=0;exitDy=0;entryX=0;entryY=0.5;entryDx=0;entryDy=0;startArrow=classic;startFill=1;fontStyle=1" parent="1" source="j9Trd8sfjwHy8gCJ8K8i-10" target="j9Trd8sfjwHy8gCJ8K8i-15" edge="1">
          <mxGeometry relative="1" as="geometry" />
        </mxCell>
        <mxCell id="j9Trd8sfjwHy8gCJ8K8i-10" value="天&lt;br style=&quot;font-size: 16px;&quot;&gt;线&lt;br style=&quot;font-size: 16px;&quot;&gt;接&lt;br style=&quot;font-size: 16px;&quot;&gt;口&lt;br style=&quot;font-size: 16px;&quot;&gt;适&lt;br style=&quot;font-size: 16px;&quot;&gt;配" style="rounded=0;whiteSpace=wrap;html=1;horizontal=1;fillColor=#cdeb8b;strokeColor=#36393d;fontSize=16;fontFamily=宋体;fontStyle=1;strokeWidth=2;" parent="1" vertex="1">
          <mxGeometry x="-910" y="-160" width="50" height="320" as="geometry" />
        </mxCell>
        <mxCell id="j9Trd8sfjwHy8gCJ8K8i-44" style="edgeStyle=orthogonalEdgeStyle;rounded=0;orthogonalLoop=1;jettySize=auto;html=1;entryX=1;entryY=0.25;entryDx=0;entryDy=0;fontStyle=1" parent="1" source="j9Trd8sfjwHy8gCJ8K8i-11" target="j9Trd8sfjwHy8gCJ8K8i-10" edge="1">
          <mxGeometry relative="1" as="geometry" />
        </mxCell>
        <mxCell id="j9Trd8sfjwHy8gCJ8K8i-46" style="edgeStyle=orthogonalEdgeStyle;rounded=0;orthogonalLoop=1;jettySize=auto;html=1;exitX=1;exitY=0.5;exitDx=0;exitDy=0;entryX=0;entryY=0.25;entryDx=0;entryDy=0;fontStyle=1" parent="1" source="j9Trd8sfjwHy8gCJ8K8i-11" target="j9Trd8sfjwHy8gCJ8K8i-16" edge="1">
          <mxGeometry relative="1" as="geometry" />
        </mxCell>
        <mxCell id="j9Trd8sfjwHy8gCJ8K8i-11" value="功放" style="rounded=0;whiteSpace=wrap;html=1;fillColor=#ffcccc;strokeColor=#36393d;strokeWidth=2;fontSize=16;fontFamily=宋体;fontStyle=1" parent="1" vertex="1">
          <mxGeometry x="-810" y="-100" width="80" height="40" as="geometry" />
        </mxCell>
        <mxCell id="j9Trd8sfjwHy8gCJ8K8i-47" style="edgeStyle=orthogonalEdgeStyle;rounded=0;orthogonalLoop=1;jettySize=auto;html=1;entryX=0;entryY=0.75;entryDx=0;entryDy=0;fontStyle=1" parent="1" source="j9Trd8sfjwHy8gCJ8K8i-12" target="j9Trd8sfjwHy8gCJ8K8i-16" edge="1">
          <mxGeometry relative="1" as="geometry" />
        </mxCell>
        <mxCell id="j9Trd8sfjwHy8gCJ8K8i-12" value="前置放大" style="rounded=0;whiteSpace=wrap;html=1;fillColor=#ffcccc;strokeColor=#36393d;strokeWidth=2;fontSize=16;fontFamily=宋体;fontStyle=1" parent="1" vertex="1">
          <mxGeometry x="-810" y="-20" width="80" height="40" as="geometry" />
        </mxCell>
        <mxCell id="j9Trd8sfjwHy8gCJ8K8i-13" value="&lt;font face=&quot;Times New Roman&quot;&gt;IF&lt;/font&gt;数字激励" style="rounded=0;whiteSpace=wrap;html=1;fillColor=#fad9d5;strokeColor=#ae4132;strokeWidth=2;fontSize=16;fontFamily=宋体;fontStyle=1" parent="1" vertex="1">
          <mxGeometry x="-580" y="-100" width="110" height="40" as="geometry" />
        </mxCell>
        <mxCell id="j9Trd8sfjwHy8gCJ8K8i-50" style="edgeStyle=orthogonalEdgeStyle;rounded=0;orthogonalLoop=1;jettySize=auto;html=1;exitX=1;exitY=0.5;exitDx=0;exitDy=0;entryX=0;entryY=0.5;entryDx=0;entryDy=0;fontStyle=1" parent="1" source="j9Trd8sfjwHy8gCJ8K8i-14" target="j9Trd8sfjwHy8gCJ8K8i-17" edge="1">
          <mxGeometry relative="1" as="geometry" />
        </mxCell>
        <mxCell id="j9Trd8sfjwHy8gCJ8K8i-14" value="数字下变频" style="rounded=0;whiteSpace=wrap;html=1;fillColor=#fad9d5;strokeColor=#ae4132;strokeWidth=2;fontSize=16;fontFamily=宋体;fontStyle=1" parent="1" vertex="1">
          <mxGeometry x="-580" y="-20" width="110" height="40" as="geometry" />
        </mxCell>
        <mxCell id="j9Trd8sfjwHy8gCJ8K8i-52" style="edgeStyle=orthogonalEdgeStyle;rounded=0;orthogonalLoop=1;jettySize=auto;html=1;entryX=0;entryY=0.75;entryDx=0;entryDy=0;fontStyle=1" parent="1" source="j9Trd8sfjwHy8gCJ8K8i-15" target="j9Trd8sfjwHy8gCJ8K8i-17" edge="1">
          <mxGeometry relative="1" as="geometry" />
        </mxCell>
        <mxCell id="j9Trd8sfjwHy8gCJ8K8i-15" value="专用数字信道" style="rounded=0;whiteSpace=wrap;html=1;fillColor=#fad9d5;strokeColor=#ae4132;strokeWidth=2;fontSize=16;fontFamily=宋体;fontStyle=1" parent="1" vertex="1">
          <mxGeometry x="-580" y="60" width="110" height="40" as="geometry" />
        </mxCell>
        <mxCell id="j9Trd8sfjwHy8gCJ8K8i-43" style="edgeStyle=orthogonalEdgeStyle;rounded=0;orthogonalLoop=1;jettySize=auto;html=1;exitX=1;exitY=0.25;exitDx=0;exitDy=0;fontStyle=1" parent="1" source="j9Trd8sfjwHy8gCJ8K8i-16" target="j9Trd8sfjwHy8gCJ8K8i-13" edge="1">
          <mxGeometry relative="1" as="geometry" />
        </mxCell>
        <mxCell id="j9Trd8sfjwHy8gCJ8K8i-48" style="edgeStyle=orthogonalEdgeStyle;rounded=0;orthogonalLoop=1;jettySize=auto;html=1;exitX=1;exitY=0.75;exitDx=0;exitDy=0;entryX=0;entryY=0.5;entryDx=0;entryDy=0;fontStyle=1" parent="1" source="j9Trd8sfjwHy8gCJ8K8i-16" target="j9Trd8sfjwHy8gCJ8K8i-14" edge="1">
          <mxGeometry relative="1" as="geometry" />
        </mxCell>
        <mxCell id="j9Trd8sfjwHy8gCJ8K8i-16" value="射&lt;br style=&quot;font-size: 16px;&quot;&gt;频&lt;br style=&quot;font-size: 16px;&quot;&gt;交&lt;br style=&quot;font-size: 16px;&quot;&gt;换&lt;br style=&quot;font-size: 16px;&quot;&gt;网&lt;br style=&quot;font-size: 16px;&quot;&gt;络" style="rounded=0;whiteSpace=wrap;html=1;fillColor=#b0e3e6;strokeColor=#0e8088;fontSize=16;fontFamily=宋体;fontStyle=1;strokeWidth=2;" parent="1" vertex="1">
          <mxGeometry x="-680" y="-120" width="50" height="160" as="geometry" />
        </mxCell>
        <mxCell id="j9Trd8sfjwHy8gCJ8K8i-49" style="edgeStyle=orthogonalEdgeStyle;rounded=0;orthogonalLoop=1;jettySize=auto;html=1;exitX=0;exitY=0.25;exitDx=0;exitDy=0;entryX=1;entryY=0.5;entryDx=0;entryDy=0;fontStyle=1" parent="1" source="j9Trd8sfjwHy8gCJ8K8i-17" target="j9Trd8sfjwHy8gCJ8K8i-13" edge="1">
          <mxGeometry relative="1" as="geometry" />
        </mxCell>
        <mxCell id="j9Trd8sfjwHy8gCJ8K8i-79" style="edgeStyle=elbowEdgeStyle;rounded=0;orthogonalLoop=1;jettySize=auto;html=1;exitX=1;exitY=0.75;exitDx=0;exitDy=0;elbow=vertical;entryX=0;entryY=0.864;entryDx=0;entryDy=0;entryPerimeter=0;fontStyle=1" parent="1" source="j9Trd8sfjwHy8gCJ8K8i-17" target="j9Trd8sfjwHy8gCJ8K8i-18" edge="1">
          <mxGeometry relative="1" as="geometry">
            <mxPoint x="-300" y="80" as="targetPoint" />
          </mxGeometry>
        </mxCell>
        <mxCell id="j9Trd8sfjwHy8gCJ8K8i-80" style="edgeStyle=elbowEdgeStyle;rounded=0;orthogonalLoop=1;jettySize=auto;html=1;exitX=1;exitY=0.25;exitDx=0;exitDy=0;elbow=vertical;entryX=0;entryY=0.136;entryDx=0;entryDy=0;entryPerimeter=0;fontStyle=1;startArrow=classic;startFill=1;endArrow=none;endFill=0;" parent="1" source="j9Trd8sfjwHy8gCJ8K8i-17" target="j9Trd8sfjwHy8gCJ8K8i-18" edge="1">
          <mxGeometry relative="1" as="geometry">
            <mxPoint x="-300" y="-80" as="targetPoint" />
          </mxGeometry>
        </mxCell>
        <mxCell id="j9Trd8sfjwHy8gCJ8K8i-17" value="数&lt;br style=&quot;font-size: 16px;&quot;&gt;字&lt;br style=&quot;font-size: 16px;&quot;&gt;交&lt;br style=&quot;font-size: 16px;&quot;&gt;换&lt;br style=&quot;font-size: 16px;&quot;&gt;网&lt;br style=&quot;font-size: 16px;&quot;&gt;络" style="rounded=0;whiteSpace=wrap;html=1;fillColor=#b0e3e6;strokeColor=#0e8088;fontSize=16;fontFamily=宋体;fontStyle=1;strokeWidth=2;" parent="1" vertex="1">
          <mxGeometry x="-420" y="-160" width="50" height="320" as="geometry" />
        </mxCell>
        <mxCell id="j9Trd8sfjwHy8gCJ8K8i-18" value="数&lt;br style=&quot;font-size: 16px;&quot;&gt;字&lt;br style=&quot;font-size: 16px;&quot;&gt;中&lt;br style=&quot;font-size: 16px;&quot;&gt;频&lt;br style=&quot;font-size: 16px;&quot;&gt;信&lt;br style=&quot;font-size: 16px;&quot;&gt;号&lt;br style=&quot;font-size: 16px;&quot;&gt;处&lt;br style=&quot;font-size: 16px;&quot;&gt;理" style="rounded=0;whiteSpace=wrap;html=1;fillColor=#ffcc99;strokeColor=#36393d;fontSize=16;fontFamily=宋体;fontStyle=1;strokeWidth=2;points=[[0,0,0,0,0],[0,0.13,0,0,0],[0,0.25,0,0,0],[0,0.5,0,0,0],[0,0.75,0,0,0],[0,0.87,0,0,0],[0,1,0,0,0],[0.25,0,0,0,0],[0.25,1,0,0,0],[0.5,0,0,0,0],[0.5,1,0,0,0],[0.75,0,0,0,0],[0.75,1,0,0,0],[1,0,0,0,0],[1,0.12,0,0,0],[1,0.25,0,0,0],[1,0.5,0,0,0],[1,0.75,0,0,0],[1,0.87,0,0,0],[1,1,0,0,0]];" parent="1" vertex="1">
          <mxGeometry x="-320" y="-110" width="50" height="220" as="geometry" />
        </mxCell>
        <mxCell id="j9Trd8sfjwHy8gCJ8K8i-19" value="综&lt;br style=&quot;font-size: 16px;&quot;&gt;合&lt;br style=&quot;font-size: 16px;&quot;&gt;数&lt;br style=&quot;font-size: 16px;&quot;&gt;据&lt;br style=&quot;font-size: 16px;&quot;&gt;处&lt;br style=&quot;font-size: 16px;&quot;&gt;理" style="rounded=0;whiteSpace=wrap;html=1;fillColor=#d0cee2;strokeColor=#56517e;fontSize=16;fontFamily=宋体;fontStyle=1;strokeWidth=2;" parent="1" vertex="1">
          <mxGeometry x="-220" y="-110" width="50" height="220" as="geometry" />
        </mxCell>
        <mxCell id="j9Trd8sfjwHy8gCJ8K8i-24" value="音&lt;br style=&quot;font-size: 16px;&quot;&gt;频&lt;br style=&quot;font-size: 16px;&quot;&gt;输&lt;br style=&quot;font-size: 16px;&quot;&gt;出" style="rounded=0;whiteSpace=wrap;html=1;fillColor=#b1ddf0;strokeColor=#10739e;fontSize=16;fontFamily=宋体;fontStyle=1;strokeWidth=2;" parent="1" vertex="1">
          <mxGeometry x="-120" y="20" width="50" height="130" as="geometry" />
        </mxCell>
        <mxCell id="j9Trd8sfjwHy8gCJ8K8i-25" value="宽频带天线阵列" style="text;html=1;strokeColor=none;fillColor=none;align=center;verticalAlign=middle;whiteSpace=wrap;rounded=0;fontSize=16;fontFamily=宋体;fontStyle=1" parent="1" vertex="1">
          <mxGeometry x="-1030" y="110" width="70" height="40" as="geometry" />
        </mxCell>
        <mxCell id="j9Trd8sfjwHy8gCJ8K8i-26" value="射频处理" style="text;html=1;strokeColor=none;fillColor=none;align=center;verticalAlign=middle;whiteSpace=wrap;rounded=0;fontSize=16;fontFamily=宋体;fontStyle=1" parent="1" vertex="1">
          <mxGeometry x="-790" y="230" width="80" height="30" as="geometry" />
        </mxCell>
        <mxCell id="j9Trd8sfjwHy8gCJ8K8i-27" value="信号处理" style="text;html=1;strokeColor=none;fillColor=none;align=center;verticalAlign=middle;whiteSpace=wrap;rounded=0;fontSize=16;fontFamily=宋体;fontStyle=1" parent="1" vertex="1">
          <mxGeometry x="-535" y="230" width="80" height="30" as="geometry" />
        </mxCell>
        <mxCell id="j9Trd8sfjwHy8gCJ8K8i-28" value="实时控制总线" style="text;html=1;strokeColor=none;fillColor=none;align=center;verticalAlign=middle;whiteSpace=wrap;rounded=0;fontSize=16;fontFamily=宋体;fontStyle=1" parent="1" vertex="1">
          <mxGeometry x="-430" y="170" width="110" height="30" as="geometry" />
        </mxCell>
        <mxCell id="j9Trd8sfjwHy8gCJ8K8i-29" value="综合管理" style="text;html=1;strokeColor=none;fillColor=none;align=center;verticalAlign=middle;whiteSpace=wrap;rounded=0;fontSize=16;fontFamily=宋体;fontStyle=1" parent="1" vertex="1">
          <mxGeometry x="-180" y="230" width="70" height="30" as="geometry" />
        </mxCell>
        <mxCell id="j9Trd8sfjwHy8gCJ8K8i-32" value="" style="triangle;direction=south;fillColor=#f5f5f5;rounded=0;fontFamily=宋体;labelBackgroundColor=none;fontSize=16;strokeColor=#000000;strokeWidth=2;fontStyle=1;fontColor=#333333;" parent="1" vertex="1">
          <mxGeometry x="-1020" y="-50" width="50" height="40" as="geometry" />
        </mxCell>
        <mxCell id="j9Trd8sfjwHy8gCJ8K8i-34" value="" style="triangle;direction=south;fillColor=#f5f5f5;rounded=0;fontFamily=宋体;labelBackgroundColor=none;fontSize=16;strokeColor=#000000;strokeWidth=2;fontStyle=1;fontColor=#333333;" parent="1" vertex="1">
          <mxGeometry x="-1020" y="30" width="50" height="40" as="geometry" />
        </mxCell>
        <mxCell id="j9Trd8sfjwHy8gCJ8K8i-35" value="" style="edgeStyle=segmentEdgeStyle;endArrow=none;html=1;curved=0;rounded=0;endSize=8;startSize=8;endFill=0;entryX=1;entryY=0.5;entryDx=0;entryDy=0;exitX=0;exitY=0.25;exitDx=0;exitDy=0;strokeWidth=2;fontStyle=1" parent="1" source="j9Trd8sfjwHy8gCJ8K8i-10" target="j9Trd8sfjwHy8gCJ8K8i-6" edge="1">
          <mxGeometry width="50" height="50" relative="1" as="geometry">
            <mxPoint x="-950" y="-50" as="sourcePoint" />
            <mxPoint x="-1000" y="-70" as="targetPoint" />
          </mxGeometry>
        </mxCell>
        <mxCell id="j9Trd8sfjwHy8gCJ8K8i-37" value="" style="edgeStyle=segmentEdgeStyle;endArrow=none;html=1;curved=0;rounded=0;endSize=8;startSize=8;endFill=0;entryX=1;entryY=0.5;entryDx=0;entryDy=0;exitX=0;exitY=0.5;exitDx=0;exitDy=0;strokeWidth=2;fontStyle=1" parent="1" source="j9Trd8sfjwHy8gCJ8K8i-10" target="j9Trd8sfjwHy8gCJ8K8i-32" edge="1">
          <mxGeometry width="50" height="50" relative="1" as="geometry">
            <mxPoint x="-910" y="50" as="sourcePoint" />
            <mxPoint x="-997.5" y="20" as="targetPoint" />
          </mxGeometry>
        </mxCell>
        <mxCell id="j9Trd8sfjwHy8gCJ8K8i-38" value="" style="edgeStyle=segmentEdgeStyle;endArrow=none;html=1;curved=0;rounded=0;endSize=8;startSize=8;endFill=0;entryX=1;entryY=0.5;entryDx=0;entryDy=0;exitX=0;exitY=0.75;exitDx=0;exitDy=0;strokeWidth=2;fontStyle=1" parent="1" source="j9Trd8sfjwHy8gCJ8K8i-10" target="j9Trd8sfjwHy8gCJ8K8i-34" edge="1">
          <mxGeometry width="50" height="50" relative="1" as="geometry">
            <mxPoint x="-905" y="130" as="sourcePoint" />
            <mxPoint x="-1000" y="110" as="targetPoint" />
          </mxGeometry>
        </mxCell>
        <mxCell id="j9Trd8sfjwHy8gCJ8K8i-53" value="综&lt;br&gt;合&lt;br&gt;管&lt;br&gt;理&lt;br&gt;控&lt;br&gt;制" style="rounded=0;whiteSpace=wrap;html=1;fillColor=#b1ddf0;strokeColor=#10739e;fontSize=16;fontFamily=宋体;fontStyle=1;strokeWidth=2;" parent="1" vertex="1">
          <mxGeometry x="-120" y="-150" width="50" height="130" as="geometry" />
        </mxCell>
        <mxCell id="j9Trd8sfjwHy8gCJ8K8i-55" value="" style="line;strokeWidth=4;html=1;fontStyle=1" parent="1" vertex="1">
          <mxGeometry x="-910" y="200" width="740" height="10" as="geometry" />
        </mxCell>
        <mxCell id="j9Trd8sfjwHy8gCJ8K8i-56" value="" style="line;strokeWidth=8;direction=south;html=1;fontStyle=1" parent="1" vertex="1">
          <mxGeometry x="-20" y="-160" width="10" height="320" as="geometry" />
        </mxCell>
        <mxCell id="j9Trd8sfjwHy8gCJ8K8i-73" value="" style="endArrow=classic;startArrow=classic;html=1;rounded=0;fontStyle=1" parent="1" edge="1">
          <mxGeometry width="50" height="50" relative="1" as="geometry">
            <mxPoint x="-170" y="-80.5" as="sourcePoint" />
            <mxPoint x="-120" y="-80" as="targetPoint" />
          </mxGeometry>
        </mxCell>
        <mxCell id="j9Trd8sfjwHy8gCJ8K8i-74" value="" style="endArrow=classic;startArrow=classic;html=1;rounded=0;fontStyle=1" parent="1" edge="1">
          <mxGeometry width="50" height="50" relative="1" as="geometry">
            <mxPoint x="-170" y="79.5" as="sourcePoint" />
            <mxPoint x="-120" y="80" as="targetPoint" />
          </mxGeometry>
        </mxCell>
        <mxCell id="j9Trd8sfjwHy8gCJ8K8i-75" value="" style="endArrow=classic;startArrow=classic;html=1;rounded=0;fontStyle=1" parent="1" edge="1">
          <mxGeometry width="50" height="50" relative="1" as="geometry">
            <mxPoint x="-70" y="79.5" as="sourcePoint" />
            <mxPoint x="-20" y="80" as="targetPoint" />
          </mxGeometry>
        </mxCell>
        <mxCell id="j9Trd8sfjwHy8gCJ8K8i-76" value="" style="endArrow=classic;startArrow=classic;html=1;rounded=0;fontStyle=1" parent="1" edge="1">
          <mxGeometry width="50" height="50" relative="1" as="geometry">
            <mxPoint x="-70" y="-80.5" as="sourcePoint" />
            <mxPoint x="-20" y="-80" as="targetPoint" />
          </mxGeometry>
        </mxCell>
        <mxCell id="j9Trd8sfjwHy8gCJ8K8i-83" value="" style="endArrow=none;startArrow=classic;html=1;rounded=0;endFill=0;entryX=-0.04;entryY=0.132;entryDx=0;entryDy=0;entryPerimeter=0;fontStyle=1" parent="1" target="j9Trd8sfjwHy8gCJ8K8i-19" edge="1">
          <mxGeometry width="50" height="50" relative="1" as="geometry">
            <mxPoint x="-270" y="-80.5" as="sourcePoint" />
            <mxPoint x="-230" y="-80" as="targetPoint" />
          </mxGeometry>
        </mxCell>
        <mxCell id="j9Trd8sfjwHy8gCJ8K8i-84" value="航&lt;br&gt;电&lt;br&gt;总&lt;br&gt;线" style="text;html=1;strokeColor=none;fillColor=none;align=center;verticalAlign=middle;whiteSpace=wrap;rounded=0;fontSize=16;fontFamily=宋体;fontStyle=1" parent="1" vertex="1">
          <mxGeometry x="-10" y="-50" width="40" height="100" as="geometry" />
        </mxCell>
        <mxCell id="j9Trd8sfjwHy8gCJ8K8i-89" value="" style="endArrow=classic;startArrow=none;html=1;rounded=0;endFill=1;startFill=0;entryX=0;entryY=0.864;entryDx=0;entryDy=0;entryPerimeter=0;fontStyle=1" parent="1" target="j9Trd8sfjwHy8gCJ8K8i-19" edge="1">
          <mxGeometry width="50" height="50" relative="1" as="geometry">
            <mxPoint x="-270" y="79.5" as="sourcePoint" />
            <mxPoint x="-230" y="80" as="targetPoint" />
          </mxGeometry>
        </mxCell>
        <mxCell id="j9Trd8sfjwHy8gCJ8K8i-94" style="edgeStyle=elbowEdgeStyle;rounded=0;orthogonalLoop=1;jettySize=auto;html=1;exitX=0.5;exitY=1;exitDx=0;exitDy=0;entryX=0.188;entryY=0.5;entryDx=0;entryDy=0;entryPerimeter=0;fontStyle=1;startArrow=classic;startFill=1;" parent="1" source="j9Trd8sfjwHy8gCJ8K8i-12" target="j9Trd8sfjwHy8gCJ8K8i-55" edge="1">
          <mxGeometry relative="1" as="geometry" />
        </mxCell>
        <mxCell id="j9Trd8sfjwHy8gCJ8K8i-96" style="edgeStyle=orthogonalEdgeStyle;rounded=0;orthogonalLoop=1;jettySize=auto;html=1;exitX=0.5;exitY=1;exitDx=0;exitDy=0;exitPerimeter=0;entryX=0.831;entryY=0.5;entryDx=0;entryDy=0;entryPerimeter=0;fontStyle=1;startArrow=classic;startFill=1;" parent="1" source="j9Trd8sfjwHy8gCJ8K8i-18" target="j9Trd8sfjwHy8gCJ8K8i-55" edge="1">
          <mxGeometry relative="1" as="geometry" />
        </mxCell>
        <mxCell id="j9Trd8sfjwHy8gCJ8K8i-97" value="" style="endArrow=classic;html=1;rounded=0;exitX=0.5;exitY=1;exitDx=0;exitDy=0;entryX=0.52;entryY=0.5;entryDx=0;entryDy=0;entryPerimeter=0;fontStyle=1;startArrow=classic;startFill=1;" parent="1" source="j9Trd8sfjwHy8gCJ8K8i-15" target="j9Trd8sfjwHy8gCJ8K8i-55" edge="1">
          <mxGeometry width="50" height="50" relative="1" as="geometry">
            <mxPoint x="-470" y="-40" as="sourcePoint" />
            <mxPoint x="-420" y="-90" as="targetPoint" />
          </mxGeometry>
        </mxCell>
        <mxCell id="8UJFz4ohCzCz3Hetbb6X-1" style="edgeStyle=elbowEdgeStyle;rounded=0;orthogonalLoop=1;jettySize=auto;html=1;jumpSize=6;startArrow=classic;startFill=1;entryX=0.343;entryY=0.2;entryDx=0;entryDy=0;entryPerimeter=0;" edge="1" parent="1" source="j9Trd8sfjwHy8gCJ8K8i-16" target="j9Trd8sfjwHy8gCJ8K8i-55">
          <mxGeometry relative="1" as="geometry">
            <mxPoint x="-655" y="200" as="targetPoint" />
            <Array as="points" />
          </mxGeometry>
        </mxCell>
      </root>
    </mxGraphModel>
  </diagram>
</mxfile>
